<svg xmlns="http://www.w3.org/2000/svg" width="1080" height="1350" viewBox="0 0 1080 1350" font-family="&#x27;Noto Sans KR&#x27;, &#x27;Apple SD Gothic Neo&#x27;, &#x27;Malgun Gothic&#x27;, sans-serif" style="white-space:pre" role="img" aria-label="보상금 제도 적용 전 점검 체크리스트"><title>보상금 제도 적용 전 점검 체크리스트</title><rect x="0.0" y="0.0" width="1080.0" height="1350.0" rx="0" fill="#FFFFFF"/><rect x="80.0" y="80.0" width="64.0" height="10.0" rx="5" fill="#D4740A"/><text x="80.0" y="175.4" font-size="64" font-weight="800" fill="#191F28" text-anchor="start" xml:space="preserve">적용 전 꼭 확인할 다섯 가지</text><line x1="80.0" y1="1219.5" x2="1000.0" y2="1219.5" stroke="#8B95A1" stroke-width="2" stroke-linecap="round" stroke-opacity="0.5"/><text x="80.0" y="1276.2" font-size="30" font-weight="400" fill="#191F28" fill-opacity="0.72" text-anchor="start" xml:space="preserve">직무발명 보상 제도 적용 전 점검 항목</text><circle cx="110.0" cy="412.7" r="26" fill="#8B95A1" fill-opacity="0.18"/><path d="M97.0,413.7 L107.0,423.7 L124.0,402.7" fill="none" stroke="#191F28" stroke-width="5" stroke-linecap="round" stroke-linejoin="round"/><text x="166.0" y="426.7" font-size="40" font-weight="500" fill="#191F28" text-anchor="start" xml:space="preserve">보상 규정이 있다</text><line x1="166.0" y1="487.7" x2="1000.0" y2="487.7" stroke="#8B95A1" stroke-width="1.5" stroke-linecap="round" stroke-opacity="0.35"/><circle cx="110.0" cy="562.7" r="26" fill="#8B95A1" fill-opacity="0.18"/><path d="M97.0,563.7 L107.0,573.7 L124.0,552.7" fill="none" stroke="#191F28" stroke-width="5" stroke-linecap="round" stroke-linejoin="round"/><text x="166.0" y="576.7" font-size="40" font-weight="500" fill="#191F28" text-anchor="start" xml:space="preserve">발명 신고서를 받았다</text><line x1="166.0" y1="637.7" x2="1000.0" y2="637.7" stroke="#8B95A1" stroke-width="1.5" stroke-linecap="round" stroke-opacity="0.35"/><circle cx="110.0" cy="712.7" r="26" fill="#D4740A" fill-opacity="1"/><path d="M97.0,713.7 L107.0,723.7 L124.0,702.7" fill="none" stroke="#FFFFFF" stroke-width="5" stroke-linecap="round" stroke-linejoin="round"/><text x="166.0" y="726.7" font-size="40" font-weight="700" fill="#D4740A" text-anchor="start" xml:space="preserve">권리 승계를 마쳤다</text><line x1="166.0" y1="787.7" x2="1000.0" y2="787.7" stroke="#8B95A1" stroke-width="1.5" stroke-linecap="round" stroke-opacity="0.35"/><circle cx="110.0" cy="862.7" r="26" fill="#8B95A1" fill-opacity="0.18"/><path d="M97.0,863.7 L107.0,873.7 L124.0,852.7" fill="none" stroke="#191F28" stroke-width="5" stroke-linecap="round" stroke-linejoin="round"/><text x="166.0" y="876.7" font-size="40" font-weight="500" fill="#191F28" text-anchor="start" xml:space="preserve">보상금 산정 근거가 있다</text><line x1="166.0" y1="937.7" x2="1000.0" y2="937.7" stroke="#8B95A1" stroke-width="1.5" stroke-linecap="round" stroke-opacity="0.35"/><circle cx="110.0" cy="1012.7" r="26" fill="#8B95A1" fill-opacity="0.18"/><path d="M97.0,1013.7 L107.0,1023.7 L124.0,1002.7" fill="none" stroke="#191F28" stroke-width="5" stroke-linecap="round" stroke-linejoin="round"/><text x="166.0" y="1026.7" font-size="40" font-weight="500" fill="#191F28" text-anchor="start" xml:space="preserve">지급 기록을 남겼다</text></svg>
